<?xml version="1.0" encoding="UTF-8"?>
<!DOCTYPE svg PUBLIC "-//W3C//DTD SVG 1.1//EN" "http://www.w3.org/Graphics/SVG/1.1/DTD/svg11.dtd">
<svg xmlns="http://www.w3.org/2000/svg" version="1.1" width="512px" height="512px" style="shape-rendering:geometricPrecision; text-rendering:geometricPrecision; image-rendering:optimizeQuality; fill-rule:evenodd; clip-rule:evenodd" xmlns:xlink="http://www.w3.org/1999/xlink">
<g><path style="opacity:0.99" fill="#020202" d="M 170.5,-0.5 C 176.5,-0.5 182.5,-0.5 188.5,-0.5C 195.04,1.51859 201.206,4.51859 207,8.5C 211.558,4.30927 216.724,1.30927 222.5,-0.5C 228.167,-0.5 233.833,-0.5 239.5,-0.5C 245.502,1.92153 251.002,5.25487 256,9.5C 261.505,5.50026 267.338,2.16693 273.5,-0.5C 279.167,-0.5 284.833,-0.5 290.5,-0.5C 296.276,1.30927 301.442,4.30927 306,8.5C 311.794,4.51859 317.96,1.51859 324.5,-0.5C 330.5,-0.5 336.5,-0.5 342.5,-0.5C 363.345,6.11193 375.012,20.4453 377.5,42.5C 403.204,51.5688 413.704,69.5688 409,96.5C 408.265,98.8713 407.432,101.205 406.5,103.5C 426.191,114.741 431.858,130.907 423.5,152C 434.581,161.98 438.247,174.147 434.5,188.5C 462.498,205.156 468.665,227.823 453,256.5C 450.5,259 448,261.5 445.5,264C 460.611,277.537 465.111,294.037 459,313.5C 457.042,318.59 454.208,323.09 450.5,327C 482.001,332.374 502.334,350.207 511.5,380.5C 511.5,421.167 511.5,461.833 511.5,502.5C 508.789,506.212 505.456,509.212 501.5,511.5C 338.167,511.5 174.833,511.5 11.5,511.5C 6.85659,509.021 3.35659,505.355 1,500.5C 0.333333,462.167 0.333333,423.833 1,385.5C 5.91597,359.913 20.416,342.08 44.5,332C 51.2285,329.988 57.8952,327.988 64.5,326C 54.4297,296.463 45.5963,266.63 38,236.5C 40.1467,230.344 44.3134,228.344 50.5,230.5C 51.2834,215.959 57.2834,204.126 68.5,195C 72.0405,193.069 75.3738,190.902 78.5,188.5C 74.5818,174.085 78.2485,161.918 89.5,152C 81.1529,130.873 86.8196,114.706 106.5,103.5C 98.5068,82.6401 102.84,64.8068 119.5,50C 124.441,46.6966 129.774,44.1966 135.5,42.5C 137.986,20.4508 149.653,6.11749 170.5,-0.5 Z"/></g>
<g><path style="opacity:1" fill="#cdd6da" d="M 327.5,17.5 C 331.147,17.6216 333.981,19.2882 336,22.5C 340.964,31.1712 342.798,40.5046 341.5,50.5C 347.44,50.7352 353.107,52.0685 358.5,54.5C 359.992,57.3231 362.326,58.9898 365.5,59.5C 377.059,73.3808 378.559,88.3808 370,104.5C 368.167,106.333 366.333,108.167 364.5,110C 370.655,109.808 376.322,111.308 381.5,114.5C 383.5,116.167 385.5,117.833 387.5,119.5C 395.973,131.672 395.306,143.339 385.5,154.5C 402.776,164.731 406.11,178.397 395.5,195.5C 421.094,201.93 430.594,217.93 424,243.5C 421.775,248.553 418.608,252.886 414.5,256.5C 413.5,257.167 412.5,257.833 411.5,258.5C 406.623,261.556 401.29,263.389 395.5,264C 401.29,264.611 406.623,266.444 411.5,269.5C 412.922,270.925 414.589,271.925 416.5,272.5C 423.055,279.475 426.721,287.809 427.5,297.5C 427.56,300.155 426.893,302.489 425.5,304.5C 422.216,300.004 417.716,297.671 412,297.5C 407.018,297.745 402.351,299.079 398,301.5C 395.522,299.022 393.022,296.522 390.5,294C 384.294,290.457 378.294,290.791 372.5,295C 368.6,298.9 364.767,302.733 361,306.5C 356.521,305.255 352.021,304.089 347.5,303C 346.572,302.612 345.905,301.945 345.5,301C 350.588,291.029 351.588,280.696 348.5,270C 356.548,264.62 362.381,257.454 366,248.5C 370.049,231.976 365.049,218.976 351,209.5C 350.978,177.773 350.311,146.106 349,114.5C 348.167,113.667 347.333,112.833 346.5,112C 328.178,111.096 317.678,101.596 315,83.5C 309.176,79.5303 303.343,79.697 297.5,84C 277.691,86.1918 266.857,77.3585 265,57.5C 261.621,49.9937 256.621,48.6604 250,53.5C 248.333,58.5 246.667,63.5 245,68.5C 240.486,74.8474 234.319,77.3474 226.5,76C 221.877,73.0318 217.044,70.5318 212,68.5C 206.791,69.2114 204.291,72.2114 204.5,77.5C 207.27,94.7936 199.937,102.627 182.5,101C 178.989,98.4945 175.156,96.6612 171,95.5C 166.931,96.2051 164.264,98.5385 163,102.5C 162.667,138.167 162.333,173.833 162,209.5C 145.34,221.485 141.34,236.819 150,255.5C 154.189,261.022 159.022,265.855 164.5,270C 161.419,280.683 162.419,291.016 167.5,301C 167.167,301.5 166.833,302 166.5,302.5C 152.268,306.417 137.935,309.584 123.5,312C 111.981,299.315 100.647,286.482 89.5,273.5C 93.7572,273.17 97.5905,271.836 101,269.5C 103.776,263.866 102.609,259.366 97.5,256C 76.6618,254.49 67.4952,243.323 70,222.5C 75.1007,211.024 83.9341,204.524 96.5,203C 98.3333,202.5 99.5,201.333 100,199.5C 100.667,196.833 100.667,194.167 100,191.5C 90.385,177.688 93.385,167.355 109,160.5C 110.483,157.298 110.817,153.964 110,150.5C 99.6417,140.038 100.142,130.205 111.5,121C 116.051,119.785 120.718,119.119 125.5,119C 130.426,116.647 132.26,112.814 131,107.5C 129.374,104.872 127.374,102.539 125,100.5C 116.648,85.049 119.481,72.2157 133.5,62C 138.277,60.0197 143.277,59.0197 148.5,59C 150.329,58.7265 151.829,57.8932 153,56.5C 154.263,49.2718 154.93,41.9385 155,34.5C 162.893,17.8676 175.393,13.0343 192.5,20C 196.314,22.6465 199.647,25.8132 202.5,29.5C 209.406,32.9732 214.239,30.9732 217,23.5C 228.507,13.4174 238.507,14.7508 247,27.5C 246.361,37.5294 250.861,42.0294 260.5,41C 264.213,37.36 266.047,32.86 266,27.5C 274.364,14.4541 284.364,13.1207 296,23.5C 298.355,30.4292 302.855,32.5958 309.5,30C 312.5,27 315.5,24 318.5,21C 321.309,19.2589 324.309,18.0922 327.5,17.5 Z"/></g>
<g><path style="opacity:1" fill="#5f7c8a" d="M 327.5,17.5 C 337.307,15.4189 345.807,18.0856 353,25.5C 355.478,28.7892 357.144,32.4558 358,36.5C 357.949,42.5821 358.115,48.5821 358.5,54.5C 353.107,52.0685 347.44,50.7352 341.5,50.5C 342.798,40.5046 340.964,31.1712 336,22.5C 333.981,19.2882 331.147,17.6216 327.5,17.5 Z"/></g>
<g><path style="opacity:1" fill="#607c8a" d="M 365.5,59.5 C 385.458,60.958 394.292,71.6246 392,91.5C 389.681,97.4732 386.347,102.807 382,107.5C 381.503,109.81 381.337,112.143 381.5,114.5C 376.322,111.308 370.655,109.808 364.5,110C 366.333,108.167 368.167,106.333 370,104.5C 378.559,88.3808 377.059,73.3808 365.5,59.5 Z"/></g>
<g><path style="opacity:1" fill="#fddeb0" d="M 316.5,119.5 C 316.831,147.338 316.498,175.005 315.5,202.5C 304.091,189.792 289.758,182.292 272.5,180C 249.634,176.216 228.301,180.216 208.5,192C 202.618,196.38 197.618,201.547 193.5,207.5C 189.312,205.862 184.978,204.862 180.5,204.5C 179.841,175.481 180.508,146.814 182.5,118.5C 202.244,120.247 215.244,111.747 221.5,93C 234.24,94.8154 245.573,91.6487 255.5,83.5C 267.551,98.8521 283.218,104.685 302.5,101C 305.881,108.205 310.548,114.371 316.5,119.5 Z"/></g>
<g><path style="opacity:1" fill="#cbb38d" d="M 182.5,118.5 C 180.508,146.814 179.841,175.481 180.5,204.5C 179.502,175.671 179.169,146.671 179.5,117.5C 180.791,117.263 181.791,117.596 182.5,118.5 Z"/></g>
<g><path style="opacity:1" fill="#bca583" d="M 316.5,119.5 C 321.736,122.803 327.403,125.136 333.5,126.5C 333.5,152.5 333.5,178.5 333.5,204.5C 328.511,204.04 323.844,205.04 319.5,207.5C 317.929,206.025 316.595,204.358 315.5,202.5C 316.498,175.005 316.831,147.338 316.5,119.5 Z"/></g>
<g><path style="opacity:1" fill="#0a0807" d="M 219.5,127.5 C 224.219,126.74 227.719,128.407 230,132.5C 230.667,140.5 230.667,148.5 230,156.5C 227.337,160.725 223.504,162.225 218.5,161C 216.19,159.363 214.69,157.196 214,154.5C 213.333,147.5 213.333,140.5 214,133.5C 215.36,130.977 217.193,128.977 219.5,127.5 Z"/></g>
<g><path style="opacity:1" fill="#0a0806" d="M 287.5,127.5 C 292.814,126.74 296.647,128.74 299,133.5C 299.667,140.5 299.667,147.5 299,154.5C 296.393,160.816 291.893,162.65 285.5,160C 284.299,159.097 283.465,157.931 283,156.5C 282.333,148.5 282.333,140.5 283,132.5C 284.193,130.503 285.693,128.836 287.5,127.5 Z"/></g>
<g><path style="opacity:1" fill="#f7d9ac" d="M 245.5,195.5 C 256.257,195.19 266.924,196.024 277.5,198C 288.63,201.218 297.63,207.385 304.5,216.5C 304.333,216.833 304.167,217.167 304,217.5C 286.07,209.667 270.237,212.667 256.5,226.5C 242.678,212.816 226.845,209.816 209,217.5C 209.398,215.369 210.398,213.369 212,211.5C 221.62,202.772 232.787,197.438 245.5,195.5 Z"/></g>
<g><path style="opacity:1" fill="#5f7b89" d="M 387.5,119.5 C 403.874,117.945 411.041,125.279 409,141.5C 407.423,144.751 405.423,147.751 403,150.5C 401.063,158.126 403.896,162.959 411.5,165C 420.249,173.33 420.749,182.163 413,191.5C 412.183,194.964 412.517,198.298 414,201.5C 421.013,203.731 427.846,206.565 434.5,210C 445.082,221.233 446.249,233.4 438,246.5C 431.511,252.835 423.678,256.168 414.5,256.5C 418.608,252.886 421.775,248.553 424,243.5C 430.594,217.93 421.094,201.93 395.5,195.5C 406.11,178.397 402.776,164.731 385.5,154.5C 395.306,143.339 395.973,131.672 387.5,119.5 Z"/></g>
<g><path style="opacity:1" fill="#f3f3f3" d="M 175.5,221.5 C 187.443,220.557 194.943,225.89 198,237.5C 201.256,239.429 204.756,239.929 208.5,239C 215.876,230.627 224.876,228.294 235.5,232C 241.061,234.562 244.894,238.728 247,244.5C 246.792,250.212 248.625,255.045 252.5,259C 257.117,260.297 260.95,259.13 264,255.5C 265.971,234.107 277.138,226.607 297.5,233C 307.871,243.097 315.371,241.264 320,227.5C 327.116,220.45 334.95,219.617 343.5,225C 349.115,229.968 350.948,236.135 349,243.5C 347.802,246.726 345.969,249.559 343.5,252C 339.581,253.862 335.581,255.529 331.5,257C 328.806,259.653 327.973,262.82 329,266.5C 336.62,280.14 334.454,291.973 322.5,302C 316.706,305.681 310.373,307.347 303.5,307C 299.969,308.529 297.969,311.196 297.5,315C 301.41,324.188 299.41,331.854 291.5,338C 274.713,343.582 265.546,337.415 264,319.5C 258.924,314.244 253.924,314.244 249,319.5C 248.2,334.644 240.367,341.477 225.5,340C 214.926,334.619 211.593,326.286 215.5,315C 214.937,310.771 212.604,308.105 208.5,307C 191.815,306.481 182.148,297.981 179.5,281.5C 179.886,276.175 181.386,271.175 184,266.5C 185.027,262.82 184.194,259.653 181.5,257C 165.159,253.482 159.993,243.982 166,228.5C 168.529,225.115 171.696,222.782 175.5,221.5 Z"/></g>
<g><path style="opacity:0.999" fill="#637f8c" d="M 411.5,258.5 C 410.167,262.167 410.167,265.833 411.5,269.5C 406.623,266.444 401.29,264.611 395.5,264C 401.29,263.389 406.623,261.556 411.5,258.5 Z"/></g>
<g><path style="opacity:1" fill="#5e7a88" d="M 416.5,272.5 C 437.556,274.382 446.389,285.716 443,306.5C 440.029,313.304 435.196,318.304 428.5,321.5C 428.167,321.167 427.833,320.833 427.5,320.5C 429.201,314.837 428.535,309.504 425.5,304.5C 426.893,302.489 427.56,300.155 427.5,297.5C 426.721,287.809 423.055,279.475 416.5,272.5 Z"/></g>
<g><path style="opacity:1" fill="#fcbf07" d="M 167.5,492.5 C 133.833,493.833 100.167,493.833 66.5,492.5C 74.1401,488.68 81.8068,484.847 89.5,481C 92.2648,478.005 93.0981,474.505 92,470.5C 69.5384,444.37 46.7051,418.536 23.5,393C 44.8333,385 66.1667,377 87.5,369C 89.6667,368.167 91.1667,366.667 92,364.5C 92.6582,360.428 92.3248,356.428 91,352.5C 82.8459,326.863 75.1792,301.196 68,275.5C 102.686,314.685 137.186,354.018 171.5,393.5C 151.597,398.976 131.597,404.143 111.5,409C 107.134,410.196 104.801,413.029 104.5,417.5C 104.935,421.037 106.435,424.037 109,426.5C 129.08,448.074 148.58,470.074 167.5,492.5 Z"/></g>
<g><path style="opacity:1" fill="#f2f2f2" d="M 381.5,309.5 C 383.625,313.262 385.458,317.262 387,321.5C 389.917,323.393 393.084,323.893 396.5,323C 401.087,319.788 405.92,316.955 411,314.5C 408.986,326.566 406.319,338.566 403,350.5C 399.817,366.416 397.15,382.416 395,398.5C 393.624,430.481 393.124,462.481 393.5,494.5C 326.163,494.833 258.83,494.5 191.5,493.5C 189.684,491.183 187.684,489.016 185.5,487C 249.929,457.238 304.429,414.738 349,359.5C 360.591,343.316 371.424,326.65 381.5,309.5 Z"/></g>
<g><path style="opacity:1" fill="#fddeb0" d="M 178.5,316.5 C 184.485,318.489 190.485,320.489 196.5,322.5C 198.151,343.983 209.651,355.65 231,357.5C 241.092,357.538 249.592,353.871 256.5,346.5C 269.246,358.615 283.579,360.782 299.5,353C 309.964,345.586 315.964,335.419 317.5,322.5C 322.505,320.914 327.338,318.914 332,316.5C 339.24,318.268 346.406,320.268 353.5,322.5C 320.838,372.996 278.838,413.829 227.5,445C 210.032,455.151 192.198,464.651 174,473.5C 159.203,456.368 144.037,439.535 128.5,423C 149.69,417.035 171.024,411.368 192.5,406C 196.613,402.491 197.446,398.324 195,393.5C 176.019,371.685 156.853,350.018 137.5,328.5C 138.381,327.029 139.714,326.196 141.5,326C 154.021,322.954 166.354,319.787 178.5,316.5 Z"/></g>
<g><path style="opacity:1" fill="#fedfb1" d="M 452.5,346.5 C 464.655,356.129 472.821,368.462 477,383.5C 478.448,420.472 478.948,457.472 478.5,494.5C 455.833,494.5 433.167,494.5 410.5,494.5C 410.333,465.831 410.5,437.165 411,408.5C 413.33,385.523 417.33,362.856 423,340.5C 425.064,339.409 427.231,339.242 429.5,340C 437.329,342.037 444.995,344.203 452.5,346.5 Z"/></g>
<g><path style="opacity:1" fill="#f6d8ac" d="M 66.5,343.5 C 67.9778,343.238 69.3112,343.571 70.5,344.5C 72.1294,348.351 73.1294,352.351 73.5,356.5C 56.4137,362.14 39.5804,368.473 23,375.5C 23.4631,372.23 24.7964,369.23 27,366.5C 37.3835,354.058 50.5502,346.391 66.5,343.5 Z"/></g>
<g><path style="opacity:1" fill="#bda683" d="M 452.5,346.5 C 475.627,350.793 489.794,364.459 495,387.5C 495.5,423.165 495.667,458.832 495.5,494.5C 489.833,494.5 484.167,494.5 478.5,494.5C 478.948,457.472 478.448,420.472 477,383.5C 472.821,368.462 464.655,356.129 452.5,346.5 Z"/></g>
<g><path style="opacity:1" fill="#050505" d="M 371.5,358.5 C 380.658,356.835 384.825,360.501 384,369.5C 365.424,415.19 335.257,451.023 293.5,477C 283.623,477.441 280.456,472.941 284,463.5C 312.045,445.122 335.045,421.788 353,393.5C 359.194,381.775 365.361,370.108 371.5,358.5 Z"/></g>
<g><path style="opacity:1" fill="#fcddb0" d="M 17.5,412.5 C 35.4862,431.823 53.1529,451.489 70.5,471.5C 55.5089,478.996 40.5089,486.496 25.5,494C 22.854,494.497 20.1873,494.664 17.5,494.5C 17.5,467.167 17.5,439.833 17.5,412.5 Z"/></g>
<g><path style="opacity:1" fill="#e3ad06" d="M 66.5,492.5 C 100.167,493.833 133.833,493.833 167.5,492.5C 168.289,492.783 168.956,493.283 169.5,494C 134.167,494.667 98.8333,494.667 63.5,494C 64.5266,493.487 65.5266,492.987 66.5,492.5 Z"/></g>
</svg>
